<svg width="93" height="36" viewBox="0 0 93 36" fill="none" xmlns="http://www.w3.org/2000/svg">
<path d="M86.9903 0L82.5331 21.6102C81.9822 24.0683 81.1309 26.2703 80.0291 28.0626C78.9273 29.8549 77.3748 30.7767 75.4717 30.7767C73.1179 30.7767 71.916 29.4964 71.916 26.936C71.916 26.4239 72.0162 25.7582 72.1664 24.99L77.3247 0H71.3651L66.958 21.2006C66.958 20.9957 66.958 20.7909 66.958 20.5861C66.958 17.1551 65.9564 14.441 63.9031 12.4438C61.8498 10.3954 59.0953 9.42247 55.6397 9.42247C52.3845 9.37127 49.5299 10.4979 47.0759 12.8023L47.6769 9.88336C46.9257 9.72973 46.0743 9.67852 45.1729 9.67852C43.1696 9.67852 41.517 10.293 40.1648 11.5733C38.8126 12.8535 37.6107 14.7482 36.559 17.3599H33.5541C35.5073 14.6458 36.6591 12.239 37.1099 10.1906H31.8013C31.8013 7.11807 30.7496 4.66003 28.5961 2.8165C26.4927 0.921764 23.3877 0 19.231 0H7.31179L0 35.1294H6.31018L9.01454 22.2248H17.9289C21.9855 22.2248 25.2908 21.0982 27.895 18.8962C28.9968 17.9744 29.8481 16.899 30.4491 15.7212L26.3926 35.1294H32.4023L34.3554 25.5533C35.6074 19.2546 38.6123 16.1309 43.3199 16.1309C43.6204 16.1309 43.9208 16.1309 44.2714 16.1821C42.6688 18.7425 41.9176 21.6615 41.9677 24.8364C41.9677 28.165 42.9693 30.8279 45.0226 32.8762C47.0759 34.9246 49.7803 35.9488 53.2859 35.9488C57.0921 36 60.3473 34.5149 63.0517 31.4936C64.2536 30.111 65.2052 28.5747 65.8562 26.9872C65.8061 27.4481 65.8061 27.909 65.8061 28.4211C65.8061 30.7767 66.4572 32.6714 67.7092 34.0028C68.9612 35.3343 70.6139 36 72.6672 36C76.0226 36 78.8271 33.8492 81.0808 29.4964H84.0856C83.3845 30.2646 82.6834 31.1863 81.9822 32.3129C81.3312 33.4395 80.8805 34.4125 80.6801 35.2319H85.7884L93 0H86.9903ZM23.0872 14.9531C21.7351 16.1309 19.9822 16.6942 17.8288 16.6942H10.1664L12.4701 5.633H19.1809C21.0339 5.633 22.4863 6.09388 23.538 6.91323C24.5897 7.78378 25.1406 8.91038 25.1406 10.3442C25.1406 12.239 24.4394 13.7752 23.0872 14.9531ZM58.7448 27.7553C57.3425 29.8549 55.5897 30.9303 53.4362 30.9303C49.8805 30.9303 48.1276 28.8819 48.1276 24.7852C48.1276 22.1223 48.8288 19.7155 50.231 17.5647C51.6333 15.4139 53.3861 14.3385 55.5396 14.3385C57.2423 14.3385 58.5444 14.8506 59.4459 15.926C60.3473 17.0014 60.7981 18.5377 60.7981 20.5348C60.8481 23.2489 60.147 25.6558 58.7448 27.7553Z" fill="#00E785"/>
</svg>